<!DOCTYPE svg PUBLIC "-//W3C//DTD SVG 1.1//EN" "http://www.w3.org/Graphics/SVG/1.1/DTD/svg11.dtd">

<!-- Uploaded to: SVG Repo, www.svgrepo.com, Transformed by: SVG Repo Mixer Tools -->
<svg width="168px" height="168px" viewBox="-4.8 -4.8 33.60 33.60" fill="none" xmlns="http://www.w3.org/2000/svg" stroke="#242424" stroke-width="1.2">

<g id="SVGRepo_bgCarrier" stroke-width="0">

<rect x="-4.8" y="-4.8" width="33.60" height="33.60" rx="16.8" fill="#0a8d88" strokewidth="0"/>

</g>

<g id="SVGRepo_tracerCarrier" stroke-linecap="round" stroke-linejoin="round"/>

<g id="SVGRepo_iconCarrier"> <path fill-rule="evenodd" clip-rule="evenodd" d="M13 4C13 3.44772 12.5523 3 12 3C11.4477 3 11 3.44772 11 4V8H7C6.44772 8 6 8.44772 6 9C6 9.55228 6.44772 10 7 10H11V14C11 14.5523 11.4477 15 12 15C12.5523 15 13 14.5523 13 14V10H17C17.5523 10 18 9.55228 18 9C18 8.44772 17.5523 8 17 8H13V4ZM7 19C6.44772 19 6 19.4477 6 20C6 20.5523 6.44772 21 7 21H17C17.5523 21 18 20.5523 18 20C18 19.4477 17.5523 19 17 19H7Z" fill="#242424"/> </g>

</svg>